<svg id="Capa_1" enable-background="new 0 0 512 512" height="512" viewBox="0 0 512 512" width="512" xmlns="http://www.w3.org/2000/svg"><path d="m114.01 0c-14.183 0-27.467 5.488-37.403 15.453-10.201 10.229-15.795 23.985-15.753 38.691v412.856c0 24.813 20.318 44.999 45.292 44.999h345.001v-511.999zm-23.159 54.102c-.02-6.72 2.466-12.924 6.997-17.469 4.267-4.279 10.007-6.636 16.162-6.636h6.281v392.004h-14.145c-5.366 0-10.514.931-15.294 2.64v-370.539zm330.298 427.901h-315.003c-8.434 0-15.294-6.73-15.294-15.002 0-8.273 6.861-15.002 15.294-15.002h315.004v30.004zm0-60.002h-270.861v-392.004h270.861z"/><path d="m285.68 323.698c17.437 0 36.534-3.736 48.989-9.963l-7.681-22.211c-13.492 6.435-27.815 9.133-41.308 9.133-44.214 0-73.481-30.306-73.481-72.652 0-41.515 29.891-72.237 74.313-72.237 44.421 0 74.104 27.815 74.104 67.67 0 23.664-5.397 32.174-13.078 32.174-4.981 0-9.133-3.114-9.133-12.454v-63.311h-33.835v10.171c-6.85-7.68-16.399-11.832-28.854-11.832-24.909 0-46.082 20.342-46.082 51.894s21.588 52.102 46.082 52.102c16.192 0 27.193-6.642 33.628-18.059 4.982 11.832 15.776 18.059 30.514 18.059 26.155 0 45.667-20.965 45.667-59.366 0-50.857-40.062-90.088-99.013-90.088-61.859 0-101.92 41.308-101.92 95.277-.001 54.593 39.854 95.693 101.088 95.693zm-1.037-69.746c-11.832 0-20.342-8.51-20.342-23.871 0-15.153 8.51-23.664 20.342-23.664s20.551 8.303 20.551 23.664c-.001 15.568-8.72 23.871-20.551 23.871z"/></svg>