<svg id="Capa_1" enable-background="new 0 0 512 512" height="512" viewBox="0 0 512 512" width="512" xmlns="http://www.w3.org/2000/svg"><path d="m314.785 0c-107.944 0-195.763 87.819-195.763 195.763 0 36.735 9.971 71.834 28.994 102.598l-132.136 52.303 37.099 33.936-51.528 55.785 75.241 71.615 52.086-56.391 38.722 34.341 47.747-125.57c30.05 17.814 64.096 27.147 99.537 27.147 107.944 0 195.764-87.82 195.764-195.764s-87.819-195.763-195.763-195.763zm-159.89 438.651-28.207-25.015-51.371 55.617-31.753-30.223 51.93-56.221-23.942-21.9 132.907-52.608zm159.89-77.14c-31.759 0-62.186-8.854-88.677-25.693l24.216-63.687c17.128 13.688 40.03 21.729 67.117 21.729 17.448 0 36.556-3.738 49.019-9.97l-7.686-22.225c-13.5 6.439-27.832 9.139-41.333 9.139-44.241 0-73.527-30.325-73.527-72.697 0-41.541 29.909-72.281 74.358-72.281 44.448 0 74.15 27.832 74.15 67.712 0 23.678-5.4 32.194-13.086 32.194-4.984 0-9.139-3.115-9.139-12.462v-63.35h-33.856v10.178c-6.854-7.685-16.409-11.839-28.872-11.839-24.924 0-46.11 20.355-46.11 51.926s21.601 52.134 46.11 52.134c16.202 0 27.21-6.647 33.648-18.07 4.985 11.839 15.786 18.07 30.533 18.07 26.171 0 45.695-20.978 45.695-59.403 0-50.888-40.086-90.144-99.074-90.144-61.897 0-101.983 41.333-101.983 95.336 0 25.054 8.394 47.263 23.387 63.972l-63.223 25.025c-17.968-27.089-27.416-58.436-27.416-91.342 0-91.394 74.354-165.748 165.748-165.748s165.748 74.354 165.748 165.748-74.353 165.748-165.747 165.748zm22.181-161.325c0 15.578-8.724 23.886-20.564 23.886-11.839 0-20.354-8.516-20.354-23.886 0-15.162 8.515-23.678 20.354-23.678 11.84 0 20.564 8.308 20.564 23.678z"/></svg>