<svg id="Capa_1" enable-background="new 0 0 512 512" height="512" viewBox="0 0 512 512" width="512" xmlns="http://www.w3.org/2000/svg"><path d="m512 0h-512v378.828h218.125c2.644 13.619 10.027 26.117 20.791 34.952l30.215 28.845v69.375h162.176v-41.498l31.94-69.367.036-22.307h48.717zm-482 30h80.482v318.828h-80.482zm403.258 364.537-31.951 69.39v18.073h-102.176v-52.211l-40.407-38.576-.509-.408c-6.206-4.971-10.227-12.358-11.032-20.269l-2.819-27.725c-.589-11.678 5.401-22.078 14.827-27.58v16.112h30v-173.31c0-3.654 2.973-6.627 6.627-6.627s6.627 2.973 6.627 6.627v151.688h30v-79.228c-.03-3.727 2.964-6.786 6.682-6.822h.069c3.776 0 6.985 3.026 7.05 6.652v73.299h30v-59.042c-.015-1.838.663-3.557 1.911-4.842.866-.891 2.374-1.957 4.646-1.979h.069c3.776 0 6.986 3.026 7.051 6.652v58.788h30v-30.015c-.021-2.435 1.203-4.051 1.935-4.797.732-.747 2.326-2.004 4.765-2.028 2.403-.059 4.057 1.202 4.805 1.936.742.727 1.985 2.301 2.029 4.707zm-100.813-214.516v-21.986c0-20.196-16.431-36.627-36.627-36.627s-36.627 16.431-36.627 36.627v22.212c-11.784-10.347-18.965-25.476-18.965-41.738 0-30.582 24.88-55.462 55.462-55.462s55.462 24.88 55.462 55.462c0 16.143-7.074 31.171-18.705 41.512zm149.555 168.807h-18.668l.123-75.891v-.171c-.096-9.821-4.011-19.016-11.023-25.893-7.012-6.876-16.292-10.605-26.103-10.515-2.454.024-4.848.294-7.163.777-3.461-16.771-18.441-29.377-36.286-29.377-.122 0-.247 0-.37.001-4.387.043-8.588.865-12.476 2.329-3.343-4.973-7.868-9.094-13.175-11.962 15.209-15.655 24.292-36.92 24.292-59.619 0-47.124-38.338-85.462-85.462-85.462s-85.462 38.338-85.462 85.462c0 33.168 19.385 63.282 48.965 77.278v67.307c-11.669 3.054-22.153 9.53-30.194 18.825-10.329 11.941-15.502 27.197-14.565 42.958l.4 3.951h-74.349v-318.826h341.516z"/><path d="m72 174.414c-7.846 0-15.363 6.899-15 15 .364 8.127 6.591 15 15 15 7.846 0 15.363-6.899 15-15-.364-8.127-6.591-15-15-15z"/></svg>