<svg id="Capa_1" enable-background="new 0 0 512 512" height="512" viewBox="0 0 512 512" width="512" xmlns="http://www.w3.org/2000/svg"><path d="m433.755 203.016c6.913-40.347-2.299-80.971-25.94-114.389-45.97-64.981-133.661-83.314-201.344-44.435l-31.262-44.192-12.325 8.719c-92.79 65.642-114.732 194.741-48.913 287.782 30.597 43.252 74.97 71.167 123.042 82.043v103.263h-78.502v30.193h186.885v-30.193h-78.19v-98.722c5.268.402 10.552.624 15.844.624 41.066-.002 82.515-12.168 118.538-37.5l12.385-8.709-31.282-44.215c27.02-23.175 44.977-54.74 51.064-90.269zm-29.759-5.099c-3.478 20.295-11.777 38.98-24.088 54.775-.687-22.535-5.27-45.182-13.475-66.885l38.034-26.906c1.9 12.777 1.774 25.914-.471 39.016zm-242.581-41.567c3.393-19.802 11.383-38.067 23.204-53.615.741 22.342 5.304 44.786 13.432 66.303l-37.117 26.257c-1.888-12.755-1.76-25.868.481-38.945zm154.117-2.444c4.921 6.956 9.323 14.172 13.216 21.576l-63.83 45.155c-5.685-6.136-11.024-12.689-15.945-19.644-4.932-6.971-9.343-14.205-13.242-21.626l63.818-45.146c5.699 6.147 11.051 12.714 15.983 19.685zm33.704 118.23c-21.971-5.739-42.923-16.234-61.534-30.632l53.137-37.591c7.38 22.344 10.301 45.594 8.397 68.223zm-125.588-121.206c-7.367-22.327-10.282-45.558-8.38-68.168 21.953 5.734 42.889 16.216 61.489 30.597zm-12.75 46.004c4.036 7.359 8.508 14.543 13.426 21.496 4.907 6.937 10.18 13.531 15.761 19.774l-41.154 29.113c-6.134-5.721-11.732-12.108-16.688-19.115-4.969-7.025-9.136-14.449-12.494-22.159zm51.209 62.676c17.597 14.848 37.261 26.637 58.103 34.781-18.598 5.972-38.483 7.426-58.288 4.033-13.101-2.245-25.531-6.501-36.946-12.546zm133.528-131.446-42.056 29.752c-4.029-7.342-8.491-14.51-13.399-21.446-4.918-6.952-10.203-13.56-15.799-19.816l42.025-29.73c6.119 5.68 11.752 12.06 16.76 19.141 4.958 7.006 9.117 14.41 12.469 22.099zm-55.341-59.753-37.94 26.84c-17.692-14.919-37.469-26.752-58.433-34.894 12.593-4.175 25.633-6.24 38.613-6.24 20.037 0 39.918 4.881 57.76 14.294zm-201.675 210.652c-53.257-75.284-39.248-178.198 29.751-236.451l13.51 19.097c-58.465 50.994-70.036 139.258-24.284 203.931 29.832 42.169 77.22 64.692 125.322 64.692 25.671 0 51.55-6.424 75.058-19.702l13.487 19.063c-78.05 45.47-179.742 24.433-232.844-50.63z"/></svg>