<svg id="Capa_1" enable-background="new 0 0 512 512" height="512" viewBox="0 0 512 512" width="512" xmlns="http://www.w3.org/2000/svg"><path d="m256 432.001c-7.846 0-15.363 6.899-15 15 .364 8.127 6.591 15 15 15 7.846 0 15.363-6.899 15-15-.364-8.127-6.591-15-15-15z"/><path d="m482.483 59.509h-83.346v-59.509h-286.274v59.509h-83.346v260.835h83.346v191.656h286.274v-191.656h83.346zm-339.62-29.509h226.274v29.509h-69.276c-16.08 0-30.973 6.413-41.937 18.058-.66.701-1.301 1.42-1.925 2.152-.624-.732-1.265-1.451-1.925-2.152-10.963-11.645-25.856-18.058-41.937-18.058h-69.276v-29.509zm-83.346 59.509h152.622c16.71 0 28.841 13.776 28.861 32.763 0 .016-.001.031-.001.047v173.323c-6.992-3.393-14.834-5.297-23.113-5.297h-158.369zm83.346 392.491v-68.481h226.274v68.481zm226.274-98.481h-226.274v-63.174h75.023c12.72 0 23.071 10.328 23.113 23.038v.077h.002 29.998.002v-.077c.042-12.71 10.393-23.038 23.113-23.038h75.023zm83.346-93.175h-158.369c-8.28 0-16.122 1.904-23.113 5.297v-173.323c0-.016-.001-.031-.001-.047.02-18.987 12.151-32.763 28.861-32.763h152.622z"/><path d="m92.292 117.968h115.935v30h-115.935z"/><path d="m92.292 176.017h115.935v30h-115.935z"/><path d="m92.292 231.833h115.935v30h-115.935z"/><path d="m303.773 118.968h115.935v30h-115.935z"/><path d="m303.773 176.017h115.935v30h-115.935z"/><path d="m303.773 231.833h115.935v30h-115.935z"/></svg>