<svg id="Capa_1" enable-background="new 0 0 512 512" height="512" viewBox="0 0 512 512" width="512" xmlns="http://www.w3.org/2000/svg"><path d="m316.828 0c-107.515 0-194.984 87.469-194.984 194.983 0 32.039 7.771 62.296 21.522 88.991l-143.177 143.176 84.85 84.85 143.297-143.297c26.572 13.591 56.652 21.264 88.492 21.264 107.514 0 194.983-87.469 194.983-194.983s-87.469-194.984-194.983-194.984zm-206.949 359.883 42.427 42.427-20.785 20.785-42.427-42.427zm-67.267 67.267 25.271-25.271 42.427 42.427-25.271 25.271zm130.905-46.051-42.427-42.427 28.512-28.512c11.903 16.205 26.247 30.508 42.486 42.368zm143.311-21.13c-90.974 0-164.986-74.012-164.986-164.986s74.012-164.986 164.986-164.986 164.986 74.012 164.986 164.986-74.013 164.986-164.986 164.986z"/><path d="m316.828 60.431c-74.192 0-134.552 60.36-134.552 134.552s60.36 134.552 134.552 134.552 134.552-60.36 134.552-134.552-60.36-134.552-134.552-134.552zm103.474 119.554h-48.274c-2.064-31.347-10.289-60.549-23.669-84.693 37.674 11.942 66.171 44.691 71.943 84.693zm-128.526 0c2.208-28.988 10.562-57.027 25.053-78.882 14.492 21.855 22.845 49.894 25.053 78.882zm50.203 29.997c-2.044 29.481-10.427 58.069-25.15 80.273-14.723-22.204-23.106-50.792-25.15-80.273zm-56.678-114.692c-13.38 24.145-21.605 53.347-23.67 84.694h-48.278c5.773-40.002 34.272-72.752 71.948-84.694zm-71.948 114.692h48.181c1.865 31.145 9.813 60.221 22.842 84.393-37.217-12.181-65.298-44.719-71.023-84.393zm135.931 84.392c13.029-24.172 20.976-53.247 22.841-84.392h48.177c-5.725 39.673-33.804 72.209-71.018 84.392z"/></svg>