<svg id="Capa_1" enable-background="new 0 0 512 512" height="512" viewBox="0 0 512 512" width="512" xmlns="http://www.w3.org/2000/svg"><path d="m512 429.657v-429.346h-512v429.347h187.712v5.108c0 25.874-21.05 46.924-46.924 46.924h-26.275v30h282.278v-30h-26.274c-25.874 0-46.924-21.05-46.924-46.924v-5.108h188.407zm-30-399.346v271.029h-452v-271.029zm-452 301.029h452v68.317h-452zm279.626 150.349h-107.945c10.039-12.997 16.032-29.269 16.032-46.924v-5.108h75.881v5.108c0 17.655 5.993 33.928 16.032 46.924z"/><path d="m256 350.357c-7.846 0-15.363 6.899-15 15 .364 8.127 6.591 15 15 15 7.846 0 15.363-6.899 15-15-.364-8.127-6.591-15-15-15z"/><path d="m206.577 269.473h145.02v-211.027h-137.156c-14.185 0-27.469 5.488-37.406 15.454-10.201 10.23-15.796 23.988-15.754 38.695v111.875c0 24.815 20.32 45.003 45.296 45.003zm115.02-90.007h-70.874v-91.02h70.874zm-130.316-66.914c-.019-6.721 2.466-12.925 6.998-17.469 4.268-4.28 10.008-6.637 16.163-6.637h6.282v91.02h-14.146c-5.366 0-10.515.931-15.296 2.641v-69.555zm15.296 96.914h115.02v30.007h-115.02c-8.434 0-15.296-6.73-15.296-15.003s6.862-15.004 15.296-15.004z"/><path d="m99.664 266.372 14.351-14.515 11.253 10.925 24.236-69.706-70.511 24.616 11.48 11.25-14.61 14.777z"/></svg>