<svg id="Capa_1" enable-background="new 0 0 511.119 511.119" height="512" viewBox="0 0 511.119 511.119" width="512" xmlns="http://www.w3.org/2000/svg"><path d="m62.774 123.786h115.936v30h-115.936z"/><path d="m62.774 181.834h115.936v30h-115.936z"/><path d="m62.774 237.65h115.936v30h-115.936z"/><path d="m274.292 123.786h115.935v30h-115.935z"/><path d="m274.292 181.834h115.935v30h-115.935z"/><path d="m274.292 237.65h115.935v30h-115.935z"/><path d="m511.119 298.717-58.118 24.125v-271.516h-182.621c-16.08 0-30.974 6.413-41.937 18.058-.666.708-1.313 1.432-1.942 2.171-.629-.739-1.276-1.464-1.942-2.171-10.963-11.645-25.856-18.058-41.937-18.058h-182.622v320.839h188.369c12.746 0 23.115 10.37 23.115 23.115h.033 29.967.033c0-10.907 7.596-20.068 17.774-22.486v86.999h193.709v-27.338l58.118 24.125v-157.863zm-299.635 48.745c-6.992-3.394-14.835-5.298-23.115-5.298h-158.369v-260.838h152.622c16.724 0 28.862 13.798 28.862 32.81zm30.034.004v-233.33c0-19.011 12.139-32.81 28.862-32.81h152.621v214.178h-163.709v46.93c-6.314.632-12.304 2.376-17.774 5.032zm181.483 82.327h-133.709v-104.29h133.709zm58.118-18.148-28.118-11.672v-44.649l28.118-11.672z"/><path d="m338.533 344.625v63.913l46.864-29.824z"/></svg>