<svg id="Capa_1" enable-background="new 0 0 512 512" height="512" viewBox="0 0 512 512" width="512" xmlns="http://www.w3.org/2000/svg"><path d="m328.721 316.001c25.72-20.658 42.4-52.126 43.077-87.446h.028v-117.907l26.679-10.56v181.337h29.945v-193.188l24.997-9.894-195.216-78.343-200.162 78.152 83.766 33.155.028 117.249c.675 35.158 17.205 66.498 42.723 87.16-83.223 18.334-145.686 92.66-145.686 181.312v14.972h434.198v-14.972c.001-88.188-61.807-162.207-144.377-181.027zm-70.641-283.796 114.488 45.946-116.568 46.137-116.085-45.946zm-2.08 124.288 85.882-33.992v76.11h-170.102v-75.452zm-84.163 72.062h169.989c-1.194 45.864-38.848 82.814-84.995 82.814s-83.8-36.949-84.994-82.814zm115.604 112.759c6.134 0 12.185.362 18.136 1.055l-49.432 53.86-48.295-54.014c5.491-.589 11.064-.901 16.709-.901zm-217.881 140.741c5.917-61.711 48.006-113.022 104.755-132.421l81.54 91.197 83.243-90.7c56.032 19.764 97.475 70.727 103.342 131.924z"/></svg>