<svg id="Capa_1" enable-background="new 0 0 512 512" height="512" viewBox="0 0 512 512" width="512" xmlns="http://www.w3.org/2000/svg"><path d="m512 415.71c0-52.667-42.848-95.514-95.514-95.514-24.171 0-46.269 9.029-63.111 23.886-19.399-13.381-41.221-22.923-64.121-28.151 25.7-20.621 42.37-52.049 43.047-87.327h.028v-117.695l26.631-10.541v181.012h29.891v-192.843l24.952-9.876-194.865-78.202-199.805 78.011 83.617 33.096v117.038h.028c.674 35.095 17.174 66.379 42.646 87.004-83.073 18.302-145.424 92.494-145.424 180.988v14.945h418.474v-.342c51.752-1.062 93.526-43.486 93.526-95.489zm-31.628-14.945h-22.221c-1.44-15.296-5.014-29.793-10.473-42.778 16.257 8.821 28.375 24.315 32.694 42.778zm-105.633 29.891c1.338 15.161 4.768 29.555 10.052 42.491-16.002-8.866-27.916-24.222-32.19-42.491zm30.05 0h23.398c-1.621 14.659-5.669 28.36-11.699 39.746-6.031-11.386-10.079-25.087-11.699-39.746zm.101-29.891c1.688-14.306 5.696-27.665 11.598-38.809 5.902 11.143 9.91 24.502 11.597 38.809zm-19.593-42.779c-5.46 12.984-9.033 27.483-10.473 42.779h-22.223c4.319-18.464 16.437-33.959 32.696-42.779zm-166.511-325.38 114.282 45.863-116.358 46.055-115.877-45.864zm-2.076 124.066 85.728-33.932v75.974h-169.797v-75.316zm-84.012 71.933h169.683c-1.192 45.782-38.778 82.665-84.842 82.665s-83.649-36.883-84.841-82.665zm115.396 112.556c7.243 0 14.394.492 21.429 1.45l-52.669 57.387-51.461-57.554c6.528-.84 13.179-1.282 19.932-1.282h62.769zm-115.652 9.272 84.123 94.085 85.938-93.636c11.107 4.149 21.735 9.603 31.744 16.306-8.428 14.23-13.274 30.819-13.274 48.522 0 25.547 10.083 48.783 26.477 65.94h-316.847c5.811-60.606 46.576-111.158 101.839-131.217zm315.743 122.712c5.283-12.935 8.713-27.329 10.052-42.49h22.135c-4.274 18.269-16.187 33.624-32.187 42.49z"/></svg>