<svg id="Capa_1" enable-background="new 0 0 512 512" height="512" viewBox="0 0 512 512" width="512" xmlns="http://www.w3.org/2000/svg"><path d="m302.024 380.763 21.261 21.261 13.836-13.836v63.31h30.067v-63.311l13.837 13.837 21.26-21.261-50.13-50.131z"/><path d="m367.188 274.293v-274.293h-266.419c-16.074 0-31.125 6.217-42.382 17.506-11.57 11.602-17.915 27.213-17.867 43.915v311.489c0 27.892 22.847 50.584 50.931 50.584h145.422c13.621 50.906 60.139 88.506 115.282 88.506 65.797 0 119.326-53.529 119.326-119.325-.001-60.705-45.567-110.967-104.293-118.382zm-89.705-244.226v134.039l-17.154-10.928-18.954 11.556v-134.667zm-17.502 158.539 47.57 30.303v-188.842h29.571v244.226c-33.296 4.204-62.356 22.186-81.285 48.032h-114.818v-292.258h70.289v188.214zm-180.303-149.87c5.574-5.59 13.065-8.669 21.091-8.669h10.182v292.258h-19.501c-7.432 0-14.491 1.603-20.863 4.457v-265.404c-.025-8.696 3.204-16.738 9.091-22.642zm11.772 354.69c-11.504 0-20.863-9.204-20.863-20.517s9.359-20.517 20.863-20.517h148.383c-4.529 12.59-7.004 26.152-7.004 40.283 0 .251.008.5.01.751zm260.705 88.507c-49.217 0-89.258-40.041-89.258-89.258s40.041-89.259 89.258-89.259 89.259 40.042 89.259 89.259c-.001 49.217-40.042 89.258-89.259 89.258z"/></svg>