<svg id="Capa_1" enable-background="new 0 0 512 512" height="512" viewBox="0 0 512 512" width="512" xmlns="http://www.w3.org/2000/svg"><path d="m480.937 0h-449.874v512h287.282v-158.723h162.593v-353.277zm-87.135 30.106v106.416l-14.824-9.132-16.512 9.735v-107.019zm-134.521 0v232.847h-14.196c-5.385 0-10.552.934-15.35 2.65v-211.306c-.019-6.744 2.475-12.97 7.023-17.531 4.283-4.295 10.043-6.66 16.219-6.66zm-198.113 451.788v-68.722h227.07v68.722zm227.071-98.828h-227.071v-352.96h143.919c-3.588 7.421-5.483 15.664-5.458 24.234v253.774c0 24.903 20.391 45.162 45.455 45.162h43.154v29.79zm162.593-59.895h-205.747c-8.464 0-15.35-6.755-15.35-15.057s6.886-15.056 15.35-15.056h205.747zm0-60.218h-161.446v-232.847h42.975v159.72l46.276-27.286 45.271 27.889v-160.323h26.924z"/><path d="m174.703 431.719c-7.874 0-15.417 6.924-15.053 15.053.365 8.156 6.614 15.053 15.053 15.053 7.874 0 15.417-6.924 15.053-15.053-.365-8.156-6.614-15.053-15.053-15.053z"/></svg>