<svg id="Capa_1" enable-background="new 0 0 512 512" height="512" viewBox="0 0 512 512" width="512" xmlns="http://www.w3.org/2000/svg"><path d="m512 373.107v-29.987h-69.042c10.179-13.099 16.263-29.531 16.263-47.367 0-42.653-34.7-77.353-77.353-77.353h-16.572v-89.686l44.694-17.213v32.544c-2.504 3.22-4.012 7.251-4.012 11.637 0 2.028 0 5.803 5.635 16.906l13.368 26.341 13.371-26.34c5.637-11.104 5.637-14.879 5.637-16.907 0-4.386-1.508-8.418-4.013-11.638v-44.091l37.363-14.39-218.82-85.384-224.103 85.202 112.516 43.333v89.686h-75.679v29.987h22.051v94.733h-8.954c-46.51 0-84.35 37.84-84.35 84.351s37.84 84.35 84.35 84.35h427.65v-29.987h-16.516v-108.727zm-393.679-287.545 140.057-53.249 136.002 53.067-138.265 53.25zm216.99 54.701v78.137h-158.393v-78.137l79.196 30.501zm-212.02 108.124h23.641 218.365 16.572c26.118 0 47.367 21.248 47.367 47.367 0 26.118-21.248 47.367-47.367 47.367h-16.676v-32.373h21.688v-29.987h-123.384v29.987h21.689v32.373h-161.895zm211.915 62.36v83.109l-10.017-5.205-10.017 5.205v-83.109zm130.291 171.087h-381.147c-29.976 0-54.364-24.388-54.364-54.364s24.388-54.363 54.364-54.363h200.835v70.122l40.004-20.785 40.004 20.785v-70.122h100.305v108.727z"/></svg>