<svg id="Capa_1" enable-background="new 0 0 512 512" height="512" viewBox="0 0 512 512" width="512" xmlns="http://www.w3.org/2000/svg"><path d="m244.879 456.477c.898 1.116 1.946 2.102 3.118 2.921-1.172-.819-2.22-1.804-3.118-2.921z"/><path d="m243.29 454.081c-.459-.849-.844-1.746-1.148-2.678.304.933.689 1.829 1.148 2.678z"/><path d="m256.343 432.001c-7.846 0-15.363 6.899-15 15 .068 1.524.343 3.004.799 4.402.304.932.689 1.829 1.148 2.678s.991 1.652 1.59 2.396c.898 1.116 1.946 2.102 3.118 2.921 2.346 1.637 5.192 2.603 8.345 2.603 7.846 0 15.363-6.899 15-15-.364-8.127-6.591-15-15-15z"/><path d="m454.543 152.027h.002l40.711-11.711-95.775-27.933v-112.383h-286.276v112.745l-96.461 27.374 96.461 27.749v344.132h286.275v-344.133l25.064-7.21v97.883c-2.731 3.112-4.354 7.122-4.354 11.551 0 3.915 19.354 33.54 19.354 33.54s19.352-29.626 19.352-33.54c0-4.429-1.622-8.438-4.353-11.549zm-311.338-47.796v-74.231h226.275.001v73.633h-.001l-110.548-32.242zm226.275 377.769h-226.275v-68.481h226.275v68.481h.001zm.001-98.481h-.002-226.274v-207.022l25.73 7.401v136.833h174.815v-136.833l25.729-7.401v.001l.002-.001zm-55.73-190.991v39.706h-114.816v-39.706l57.408 16.514zm0 69.706v28.497h-114.816v-28.497zm73.677-122.116-131.085 37.708-130.399-37.511.002-.001h-.002l132.875-37.707 128.609 37.511h-.002z"/></svg>