<svg id="Capa_1" enable-background="new 0 0 510.84 510.84" height="512" viewBox="0 0 510.84 510.84" width="512" xmlns="http://www.w3.org/2000/svg"><path d="m259.986 0c-15.262 0-29.553 5.903-40.242 16.623-10.982 11.013-17.006 25.828-16.961 41.674v217.215l-187.146 74.076 37.08 33.918-51.501 55.757 75.201 71.577 52.06-56.361 38.702 34.323 43.276-113.813c8.633 13.353 23.705 22.225 40.833 22.225h258.335v-397.214zm156.788 30v132.772l-17.944-11.055-19.769 11.656v-133.373zm-183.991 28.254c-.022-7.858 2.892-15.121 8.204-20.448 5.02-5.034 11.767-7.807 18.999-7.807h8.536v270.85h-17.233c-4.632 0-9.108.662-13.354 1.872l18.407-48.409-23.56 9.325v-205.383zm-78.203 379.275-28.192-25.002-51.345 55.587-31.736-30.206 51.903-56.192-23.93-21.889 132.838-52.58zm325.044-70.315h-228.335c-10.204 0-18.506-8.156-18.506-18.182s8.302-18.182 18.506-18.182h228.335zm0-66.364h-181.102v-270.85h50.539v185.889l49.429-29.145 48.284 29.746v-186.49h32.85z"/></svg>