<svg id="Capa_1" enable-background="new 0 0 512 512" height="512" viewBox="0 0 512 512" width="512" xmlns="http://www.w3.org/2000/svg"><path d="m209.157 425c-7.846 0-15.363 6.899-15 15 .364 8.127 6.591 15 15 15 7.846 0 15.363-6.899 15-15-.364-8.127-6.591-15-15-15z"/><path d="m383.571 110.407c-27.397 0-49.686 22.289-49.686 49.687 0 27.396 22.289 49.686 49.686 49.686s49.686-22.289 49.686-49.686c0-27.398-22.289-49.687-49.686-49.687zm0 69.372c-10.855 0-19.686-8.831-19.686-19.686s8.831-19.687 19.686-19.687 19.686 8.831 19.686 19.687c0 10.855-8.831 19.686-19.686 19.686z"/><path d="m492.258 160.094-12.267-19.176 4.028-22.437-18.714-13.006-4.877-22.238-22.238-4.877-13.006-18.714-22.436 4.027-4.175-2.671v-61.002h-378.831v512h378.829v-178.545l32.437 16.31v-97.605l7.181-10.332 22.238-4.877 4.877-22.238 18.714-13.006-4.028-22.437zm-123.687-130.094v31.003l-4.175 2.671-22.437-4.027-13.006 18.713-22.238 4.877-4.601 20.979h-77.955v30h61.79l1.203 6.702-12.267 19.175 2.64 4.127h-53.366v30h60.308l-1.344 7.484 18.714 13.006 2.086 9.514h-79.765v30h81.675v-21.291l.881 4.016 22.238 4.877 7.182 10.333v97.604l32.437-16.31v38.063h-318.829v-341.516zm-318.829 452v-80.482h318.829v80.482zm333.829-189.666-17.437 8.767v-43.475l17.437 11.154 17.437-11.154v43.475zm67.518-104.276-12.568 8.734-3.283 14.969-14.969 3.283-8.734 12.567-15.056-2.703-12.908 8.259-12.909-8.259-15.056 2.703-8.734-12.567-14.97-3.283-3.283-14.97-12.567-8.734 2.703-15.054-8.258-12.909 8.258-12.909-2.703-15.055 12.568-8.734 3.283-14.969 14.97-3.283 8.734-12.567 15.055 2.703 12.909-8.259 12.908 8.259 15.056-2.703 8.734 12.567 14.97 3.283 3.283 14.969 12.567 8.734-2.703 15.056 8.258 12.908-8.258 12.908z"/><path d="m109.021 104.217h79.843v30h-79.843z"/><path d="m109.021 164.221h79.843v30h-79.843z"/><path d="m109.021 224.225h79.843v30h-79.843z"/><path d="m109.021 284.229h79.843v30h-79.843z"/><path d="m224.158 284.229h81.675v30h-81.675z"/></svg>