<svg id="Capa_1" enable-background="new 0 0 512 512" height="512" viewBox="0 0 512 512" width="512" xmlns="http://www.w3.org/2000/svg"><path d="m466.329 216.771v-81.924h-31.674c-3.156-11.161-7.588-21.857-13.255-31.989l22.4-22.399-57.929-57.931-22.4 22.401c-10.132-5.667-20.827-10.099-31.989-13.255v-31.674h-285.811v512h286.089v-192.071c11.01-3.14 21.617-7.564 31.718-13.232l22.393 22.393 57.929-57.93-22.4-22.399c5.667-10.132 10.099-20.829 13.255-31.99zm-216.771-186.771v1.674c-11.162 3.156-21.857 7.588-31.989 13.255l-14.928-14.929zm-173.887 452v-68.481h226.089v68.481zm226.089-98.481h-226.089v-353.519h112.025l-50.456 50.458 22.399 22.399c-5.666 10.132-10.098 20.829-13.254 31.989h-31.675v81.924h31.674c3.156 11.161 7.588 21.858 13.254 31.99l-22.4 22.399 57.929 57.929 22.4-22.399c10.132 5.666 20.829 10.099 31.989 13.255v31.674h52.203v31.901zm108.707-196.748-2.366 12.128c-3.066 15.712-9.161 30.423-18.117 43.726l-6.899 10.248 18.289 18.288-15.502 15.503-18.289-18.288-10.248 6.898c-13.379 9.007-27.997 15.103-43.446 18.116l-12.128 2.366v25.862h-22.203v-25.862l-12.128-2.366c-15.71-3.064-30.421-9.16-43.725-18.116l-10.248-6.898-18.289 18.288-15.502-15.503 18.288-18.288-6.899-10.248c-8.956-13.303-15.051-28.015-18.116-43.726l-2.366-12.128h-25.863v-21.924h25.862l2.366-12.127c3.066-15.712 9.161-30.423 18.116-43.726l6.899-10.248-18.288-18.288 15.503-15.503 18.289 18.289 10.249-6.9c13.301-8.955 28.012-15.051 43.725-18.116l12.127-2.367v-25.861h21.924v25.86l12.127 2.367c15.713 3.065 30.424 9.161 43.725 18.116l10.249 6.9 18.289-18.289 15.502 15.503-18.289 18.288 6.899 10.248c8.956 13.303 15.051 28.014 18.117 43.726l2.366 12.127h25.861v21.924h-25.861z"/><path d="m288.462 84.63c-50.251 0-91.133 40.882-91.133 91.133s40.882 91.133 91.133 91.133 91.133-40.882 91.133-91.133-40.882-91.133-91.133-91.133zm0 152.266c-33.708 0-61.133-27.424-61.133-61.133s27.424-61.133 61.133-61.133 61.133 27.424 61.133 61.133-27.424 61.133-61.133 61.133z"/><path d="m270.77 206.76 47.022-29.924-47.022-34.205z"/><path d="m188.808 432c-7.846 0-15.363 6.899-15 15 .364 8.127 6.591 15 15 15 7.846 0 15.363-6.899 15-15-.364-8.127-6.59-15-15-15z"/></svg>