<svg id="Capa_1" enable-background="new 0 0 512 512" height="512" viewBox="0 0 512 512" width="512" xmlns="http://www.w3.org/2000/svg"><path d="m255.653 158.324c27.388 0 49.671-22.282 49.671-49.671 0-27.388-22.282-49.67-49.671-49.67s-49.671 22.282-49.671 49.67c0 27.389 22.282 49.671 49.671 49.671zm0-69.351c10.852 0 19.68 8.828 19.68 19.68s-8.828 19.68-19.68 19.68-19.68-8.828-19.68-19.68c0-10.851 8.828-19.68 19.68-19.68z"/><path d="m354.439 76.14 1.631-9.085-18.708-13.002-4.875-22.232-22.232-4.875-13.003-18.709-22.43 4.026-19.169-12.263-19.169 12.263-22.429-4.026-13.002 18.708-22.231 4.875-4.876 22.231-18.708 13.002 1.631 9.086h-94.98v435.861h388.222v-435.86zm-166.283 4.558 12.564-8.732 3.282-14.964 14.965-3.282 8.731-12.564 15.052 2.702 12.904-8.256 12.904 8.256 15.051-2.702 8.732 12.564 14.965 3.282 3.282 14.965 12.563 8.732-2.702 15.05 8.256 12.904-8.256 12.904 2.702 15.051-12.564 8.732-3.282 14.964-14.964 3.282-8.732 12.563-15.051-2.702-12.904 8.256-12.904-8.256-15.052 2.702-8.732-12.563-14.965-3.282-3.282-14.964-12.564-8.732 2.702-15.05-8.256-12.905 8.256-12.904zm50.066 125.457 17.431 11.151 17.431-11.151v43.461l-17.431-8.764-17.431 8.764zm-37.17-15.794 7.179 10.33v97.574l47.422-23.845 47.421 23.845v-97.574l7.179-10.33 22.231-4.875 4.875-22.231 3.081-2.141h5.34c5.656 7.223 12.132 13.699 19.355 19.355v226.908c-7.32 5.733-13.871 12.306-19.581 19.649h-179.11c-5.71-7.343-12.261-13.917-19.581-19.649v-226.908c7.223-5.656 13.698-12.132 19.355-19.355h4.646l3.081 2.141 4.875 22.231zm219.068 291.648h-328.24v-375.879h56.734l-1.614 2.523 12.263 19.169-.593 3.301h-8.053l-4.459 6.612c-6.06 8.987-13.689 16.616-22.675 22.675l-6.612 4.459v258.11l6.613 4.459c9.067 6.112 16.751 13.826 22.838 22.925l4.454 6.656h210.447l4.454-6.656c6.088-9.099 13.771-16.812 22.839-22.925l6.612-4.459v-258.11l-6.612-4.458c-8.986-6.06-16.616-13.689-22.676-22.676l-4.458-6.612h-8.747l-.592-3.3 12.263-19.17-1.614-2.523h57.427v375.879z"/></svg>