<svg id="Capa_1" enable-background="new 0 0 512 512" height="512" viewBox="0 0 512 512" width="512" xmlns="http://www.w3.org/2000/svg"><path d="m460.738 175.964 51.262-22.274-252.878-111.325-259.122 111.149 115.589 50.225v202.434h283.42v-203.386l32.229-14.004v220.926c-3.345 3.6-5.408 8.405-5.408 13.695 0 2.115 0 6.516 7.006 20.318l13.153 25.914 13.153-25.914c7.006-13.802 7.006-18.203 7.006-20.318 0-5.29-2.064-10.095-5.408-13.695v-233.745zm-201.769-101.434 179.412 78.984-182.18 79.16-181.774-78.985zm-113.88 302.144v-35.104h224.419v35.103h-224.419zm224.419-64.604h-224.419v-95.512l111.113 48.281 113.306-49.234z"/></svg>