<svg id="Capa_1" enable-background="new 0 0 512 512" height="512" viewBox="0 0 512 512" width="512" xmlns="http://www.w3.org/2000/svg"><path d="m427.771 134.39v-49.549h-134v-44.583h-84.093v-40.258h-209.543v395.779h180.973l8.582 7.85-42.309 45.808 65.731 62.563 42.869-46.411 32.766 29.057 37.593-98.866h185.526v-261.39zm54.045 30.049v101.957h-54.045v-101.957zm-54.045 132.006h54.045v19.366h-54.045zm-218.092 57.77v-189.776h54.044v168.384zm-119.664-64.331h29.783v18.581h-29.783zm-30.049 18.581h-29.783v-18.581h29.783zm89.881-18.581h29.783v18.581h-29.783zm113.876-219.577v14.534 49.548h-54.044v-64.082zm-84.093-40.258v10.209 219.577h-29.783v-229.786zm-59.832 0v229.786h-29.783v-229.786zm-59.832 0v229.786h-29.783v-229.786zm-29.783 335.681v-27.216h29.783v27.216zm59.832 0v-27.216h29.783v27.216zm59.832-27.216h29.783v27.216h-29.783zm126.28 104.776-22.239-19.722-42.153 45.637-22.196-21.126 42.712-46.242-18.496-16.918 99.55-39.404zm121.596-77.56h-59.958l27.847-73.237-71.841 28.436v-206.039h103.951v19.5 231.34zm30.048 0v-19.871h54.045v19.871z"/><path d="m345.748 137.52c-7.859 0-15.388 6.911-15.024 15.024.365 8.14 6.602 15.024 15.024 15.024 7.859 0 15.388-6.911 15.025-15.024-.366-8.14-6.602-15.024-15.025-15.024z"/></svg>