<svg id="Capa_1" enable-background="new 0 0 512 512" height="512" viewBox="0 0 512 512" width="512" xmlns="http://www.w3.org/2000/svg"><path d="m416.363 163.244h-3.88c-6.773-37.267-38.31-66.011-76.883-68.498-3.229-23.185-13.966-44.688-31.032-61.689-20.644-20.567-47.879-31.893-76.685-31.893-59.376 0-107.884 47.429-109.628 106.391-65.591 2.253-118.255 56.315-118.255 122.445 0 57.929 40.21 107.144 95.496 119.527l.695 113.219.277-.001c-.183 1.611-.277 3.25-.277 4.909 0 23.811 19.371 43.182 43.182 43.182h216.332v-158.318h61.658c25.411 0 49.265-9.933 67.167-27.969 17.901-18.033 27.655-41.964 27.467-67.383-.383-51.788-43.285-93.922-95.634-93.922zm-291.466 88.636c-.021-7.54 2.899-14.633 8.223-19.973 4.978-4.993 11.496-7.886 18.486-8.242v200.807h-12.233c-4.677 0-9.182.747-13.403 2.129zm200.808 228.956h-186.332c-7.269 0-13.182-5.913-13.182-13.182s5.913-13.182 13.182-13.182h186.332zm0-56.363h-144.099v-200.846h37.539v139.126l42.227-36.414 41.484 37.378v-140.09h22.849zm-76.56-200.846h23.711v72.678l-11.049-9.956-12.662 10.919zm214.094 79.789c-12.228 12.318-28.52 19.103-45.876 19.103h-61.658v-128.892h-202.634c-15.57 0-30.2 6.072-41.194 17.098-10.994 11.024-17.024 25.671-16.979 41.29l.408 66.454c-38.2-11.666-65.306-47.129-65.306-88.469 0-51.015 41.504-92.519 92.519-92.519h25.688v-26.64c0-43.935 35.743-79.678 79.677-79.678 20.814 0 40.529 8.22 55.512 23.146 14.983 14.927 23.235 34.581 23.235 55.343v15.145l23.594-.227c29.565.035 53.606 24.1 53.606 53.673v15h32.533c35.929 0 65.373 28.775 65.635 64.146.127 17.364-6.535 33.71-18.76 46.027z"/></svg>