<svg id="Capa_1" enable-background="new 0 0 512 512" height="512" viewBox="0 0 512 512" width="512" xmlns="http://www.w3.org/2000/svg"><path d="m367.188 274.293v-274.293h-266.418c-16.074 0-31.126 6.217-42.382 17.506-11.57 11.603-17.915 27.214-17.868 43.915v311.488c0 27.892 22.847 50.584 50.93 50.584h145.422c13.622 50.906 60.14 88.507 115.282 88.507 65.797 0 119.326-53.53 119.326-119.326 0-60.705-45.566-110.966-104.292-118.381zm-89.705-244.226v134.038l-17.154-10.927-18.954 11.556v-134.667zm-17.502 158.538 47.569 30.304v-188.842h29.571v244.226c-33.296 4.204-62.355 22.186-81.284 48.031h-114.818v-292.257h70.289v188.213zm-180.302-149.869c5.574-5.59 13.064-8.669 21.091-8.669h10.182v292.257h-19.501c-7.432 0-14.491 1.603-20.863 4.457v-265.403c-.026-8.696 3.203-16.737 9.091-22.642zm11.772 354.69c-11.504 0-20.863-9.204-20.863-20.517s9.359-20.518 20.863-20.518h148.383c-4.529 12.591-7.004 26.153-7.004 40.283 0 .251.008.501.01.752zm260.703 88.507c-49.217 0-89.258-40.041-89.258-89.259 0-49.217 40.041-89.259 89.258-89.259s89.259 40.042 89.259 89.259c0 49.218-40.041 89.259-89.259 89.259z"/><path d="m302.352 377.641h99.604v30.067h-99.604z"/></svg>