<svg id="Capa_1" enable-background="new 0 0 512 512" height="512" viewBox="0 0 512 512" width="512" xmlns="http://www.w3.org/2000/svg"><path d="m66.586 0v512h378.828v-512zm292.546 30.311v46.278l-14.192-10.64-14.192 10.64v-46.278zm-58.385-.311v106.571l44.192-33.128 44.192 33.128v-106.571h26.282v341.518h-318.827v-341.518zm-204.161 452v-80.482h318.828v80.482z"/><path d="m256 425c-7.846 0-15.363 6.899-15 15 .364 8.127 6.591 15 15 15 7.846 0 15.363-6.899 15-15-.364-8.127-6.591-15-15-15z"/><path d="m256 321.919c47.958 0 86.975-39.017 86.975-86.975s-39.017-86.974-86.975-86.974-86.975 39.017-86.975 86.975 39.017 86.974 86.975 86.974zm0-143.949c31.416 0 56.975 25.559 56.975 56.975s-25.559 56.974-56.975 56.974-56.975-25.559-56.975-56.975 25.559-56.974 56.975-56.974z"/><path d="m238.387 201.311v63.908l46.867-29.826z"/></svg>