<svg id="Capa_1" enable-background="new 0 0 512 512" height="512" viewBox="0 0 512 512" width="512" xmlns="http://www.w3.org/2000/svg"><path d="m0 0v398.127h512v-398.127zm256 140.557c25.328 0 45.935 20.606 45.935 45.935s-20.606 45.936-45.935 45.936-45.935-20.606-45.935-45.936c0-25.329 20.607-45.935 45.935-45.935zm-45.907-14.5c.587-24.821 20.947-44.836 45.907-44.836s45.32 20.015 45.907 44.837c-12.76-9.716-28.668-15.501-45.907-15.501s-33.147 5.784-45.907 15.5zm49.367 136.37c50.194 0 91.031 40.836 91.031 91.03v14.236h-188.982v-14.236c0-50.194 40.837-91.03 91.031-91.03zm222.54 105.7h-101.509v-14.67c0-49.718-30.137-92.523-73.1-111.125 11.568-10.655 19.83-24.844 23.049-40.841h22.05v-30h-20.556v-44.336c0-41.87-34.064-75.935-75.935-75.935s-75.935 34.064-75.935 75.935v44.336h-20.554v30h22.05c3.218 15.997 11.48 30.186 23.049 40.841-42.963 18.602-73.1 61.407-73.1 111.125v14.67h-101.509v-338.127h452z"/><path d="m100 424.619h-30v29.691h-70v30h70v27.69h30v-27.69h412v-30h-412z"/></svg>