<svg id="Capa_1" enable-background="new 0 0 512 512" height="512" viewBox="0 0 512 512" width="512" xmlns="http://www.w3.org/2000/svg"><path d="m512 429.657v-429.346h-512v429.347h187.712v5.108c0 25.874-21.05 46.924-46.924 46.924h-26.274v30h282.278v-30h-26.274c-25.874 0-46.924-21.05-46.924-46.924v-5.108h188.406zm-30-399.346v271.029h-112.146c-5.47-35.997-30.313-65.712-63.525-78.151 7.962-9.733 13.129-21.829 14.294-35.058h.266v-67.757l53.291-21.093-117.037-46.97-119.806 46.779 54.597 21.609v67.432h.266c1.156 13.122 6.252 25.125 14.104 34.817-33.53 12.297-58.653 42.165-64.158 78.392h-112.146v-271.029zm-226 83.482-36.667-14.514 37.657-14.702 36.16 14.511zm0 32.264 34.889-13.809v25.883h-68.955v-25.558zm34.409 42.074c-2.726 16.307-16.929 28.777-33.998 28.777s-31.272-12.471-33.998-28.777zm-49.962 58.777h31.105c33.137 0 60.926 23.332 67.8 54.432h-166.705c6.874-31.1 34.664-54.432 67.8-54.432zm-210.447 84.432h452v68.317h-452zm279.625 150.349h-107.945c10.039-12.997 16.032-29.269 16.032-46.924v-5.108h75.882v5.108c0 17.655 5.993 33.928 16.031 46.924z"/><path d="m256 350.357c-7.846 0-15.363 6.899-15 15 .364 8.127 6.591 15 15 15 7.846 0 15.363-6.899 15-15-.364-8.127-6.591-15-15-15z"/></svg>