<svg id="Capa_1" enable-background="new 0 0 512 512" height="512" viewBox="0 0 512 512" width="512" xmlns="http://www.w3.org/2000/svg"><path d="m455.532 222.338v-22.807c0-110.022-89.51-199.531-199.532-199.531s-199.532 89.509-199.532 199.531v22.807c-31.172 3.2-55.569 29.611-55.569 61.615v50.186c0 34.155 27.787 61.942 61.942 61.942h49.845v67.718h.292c-.193 1.64-.292 3.311-.292 5.002 0 23.82 19.669 43.199 43.846 43.199h243.431v-115.919h49.198c34.155 0 61.942-27.786 61.942-61.942v-50.186c-.002-32.004-24.399-58.414-55.571-61.615zm-199.532-192.326c93.474 0 169.52 76.046 169.52 169.519v22.481h-25.558v-57.361h-229.727c-15.37 0-29.779 5.961-40.574 16.787-10.768 10.799-16.757 25.19-16.956 40.574h-26.225v-22.481c0-93.473 76.046-169.519 169.52-169.519zm13.348 164.651h37.727v92.805l-17.951-11.059-19.776 11.661zm-238.437 139.476v-50.186c0-15.424 10.994-28.328 25.557-31.29v112.765c-14.563-2.96-25.557-15.865-25.557-31.289zm55.569 31.93v-114.045h26.205v114.045zm56.217-143.141c-.022-7.754 2.896-14.963 8.216-20.298 5.123-5.138 11.985-7.967 19.322-7.967h8.539v230.939h-22.243c-4.831 0-9.484.775-13.834 2.203v-31.724zm227.253 259.06h-213.419c-7.499 0-13.834-6.039-13.834-13.187s6.335-13.187 13.834-13.187h213.419zm0-56.385h-161.164v-230.94h30.55v145.944l49.448-29.156 48.303 29.758v-146.546h32.863v27.349 174.069zm30.012-173.579h25.558v114.045h-25.558zm81.127 82.115c0 15.424-10.994 28.328-25.557 31.29v-112.765c14.563 2.961 25.557 15.865 25.557 31.29z"/></svg>