<svg id="Capa_1" enable-background="new 0 0 512 512" height="512" viewBox="0 0 512 512" width="512" xmlns="http://www.w3.org/2000/svg"><path d="m402.296 329.531c22.422-17.292 36.894-44.411 36.894-74.851 0-48.905-37.346-89.249-85.017-94.016v-160.664h-353.961v298.416h118.122v1.539c0 19.838-16.14 35.978-35.978 35.978h-21.641v30.046h167.283c-31.737 30.523-51.519 73.392-51.519 120.798v25.223h335.309v-25.223c0-72.006-45.631-133.549-109.492-157.246zm-131.265 6.388c-19.593-.287-35.446-16.305-35.446-35.965v-1.539h25.38c6.309 12.03 15.131 22.541 25.769 30.829-5.367 1.963-10.606 4.195-15.703 6.675zm138.113-81.239c0 35.533-28.909 64.442-64.442 64.442s-64.442-28.909-64.442-64.442c0-35.534 28.909-64.443 64.442-64.443s64.442 28.909 64.442 64.443zm-288.018-224.634v72.79l-11.066-9.971-12.681 10.937v-73.756zm-53.794 0v139.34l42.292-36.47 41.548 37.436v-140.306h172.955v132.407c-24.081 5.369-44.725 19.951-58.026 39.845h-235.843v-172.252zm-37.074 202.298h222.629c-1.743 7.164-2.674 14.642-2.674 22.335 0 4.649.343 9.219.995 13.69h-220.95zm118.122 67.61v-1.539h57.159v1.539c0 13.265 3.946 25.62 10.707 35.978h-78.573c6.76-10.358 10.707-22.712 10.707-35.978zm58.228 182c2.553-73.65 63.264-132.786 137.525-132.786s134.972 59.136 137.525 132.786z"/></svg>