<svg id="Capa_1" enable-background="new 0 0 512 512" height="512" viewBox="0 0 512 512" width="512" xmlns="http://www.w3.org/2000/svg"><path d="m437.004 74.948c-48.332-48.331-112.591-74.948-180.941-74.948s-132.611 26.617-180.942 74.948c-48.331 48.332-74.948 112.591-74.948 180.942 0 42.09 10.279 83.243 29.864 120.063l-20.825 8.243 29.509 26.992-38.673 41.872 61.927 58.94 39.232-42.474 30.402 26.962 5.349-14.068c36.576 19.253 77.394 29.359 119.105 29.359 68.35 0 132.61-26.617 180.942-74.948 48.331-48.332 74.948-112.591 74.948-180.942-.001-68.35-26.618-132.609-74.949-180.941zm-406.343 165.948c1.792-27.522 8.506-54.087 19.719-78.676h86.164c-7.571 25.449-11.946 51.977-13.124 78.676zm134.977-71.332c.745-2.466 1.533-4.91 2.339-7.344h73.092v78.676h-87.643c1.177-24.221 5.241-48.274 12.212-71.332zm105.418-37.331v-85.166c24.909 23.331 45.048 50.971 60.023 82.519.417.879.825 1.763 1.233 2.647zm73.083 29.987c8.344 25.222 13.303 51.812 14.637 78.676h-87.72v-78.676zm-103.07-115.137v85.151h-61.267c14.908-32.301 35.601-61.066 61.267-85.151zm0 223.8v78.677h-53.592l16.08-42.289-42.634 16.875c-4.09-17.435-6.586-35.301-7.486-53.263zm0 108.664v84.643c-25.394-23.901-46.136-52.634-61.023-84.643zm29.987 84.691v-84.69h61.035c-.336.724-.669 1.45-1.011 2.171-14.976 31.548-35.114 59.187-60.024 82.519zm0-114.678v-78.677h87.697c-1.378 26.872-6.384 53.462-14.773 78.677zm117.718-78.677h92.689c-1.792 27.522-8.506 54.087-19.719 78.677h-86.324c7.591-25.411 12.106-51.933 13.354-78.677zm.023-29.987c-1.208-26.737-5.682-53.259-13.232-78.676h86.179c11.213 24.589 17.927 51.154 19.719 78.676zm56.388-108.663h-80.175c-2.144-5.238-4.422-10.411-6.84-15.506-14.668-30.9-33.799-58.433-57.112-82.279 43.186 8.683 82.884 29.847 114.741 61.705 11.13 11.129 20.942 23.223 29.386 36.08zm-348.86-36.08c31.874-31.874 71.595-53.044 114.806-61.719-27.317 27.964-48.961 60.993-64.029 97.799h-80.162c8.444-12.857 18.256-24.951 29.385-36.08zm-65.666 174.73h92.78c.989 21.748 4.102 43.378 9.338 64.403l-74.655 29.55c-15.926-28.887-25.284-60.922-27.463-93.953zm68.459 156.71-38.518 41.701-18.48-17.589 39.075-42.305-16.364-14.968 86.524-34.248-32.341 85.055zm64.296-14.75c13.237 23.638 29.498 45.355 48.326 64.578-22.373-4.457-43.961-12.279-64.034-23.266zm252.385 2.783c-32 32.001-71.91 53.219-115.321 61.828 23.577-23.983 42.903-51.72 57.692-82.877 2.345-4.94 4.555-9.954 6.642-15.03h80.372c-8.444 12.857-18.255 24.951-29.385 36.079z"/></svg>