<svg id="Capa_1" enable-background="new 0 0 512 512" height="512" viewBox="0 0 512 512" width="512" xmlns="http://www.w3.org/2000/svg"><path d="m113.997 0c-14.185 0-27.47 5.488-37.407 15.453-10.202 10.229-15.796 23.986-15.754 38.691v412.856c0 24.813 20.319 45 45.296 45h345.033v-512zm-23.161 54.101c-.02-6.72 2.466-12.924 6.998-17.468 4.268-4.279 10.008-6.636 16.163-6.636h6.281v392.004h-14.146c-5.366 0-10.515.932-15.296 2.641zm330.329 427.902h-315.034c-8.435 0-15.296-6.73-15.296-15.003 0-8.272 6.861-15.001 15.296-15.001h315.033v30.004zm0-60.002h-270.887v-392.004h270.887z"/><path d="m219.092 224.202c16.867-18.98 41.041-29.865 66.322-29.865 25.28 0 49.454 10.886 66.323 29.865l22.424-19.926c-22.557-25.38-54.904-39.937-88.747-39.937-33.845 0-66.191 14.556-88.748 39.937z"/><path d="m285.415 254.391c-8.175 0-15.984 3.514-21.427 9.643l21.429 19.028 21.423-19.031c-5.444-6.126-13.253-9.64-21.425-9.64z"/><path d="m285.415 209.001c-21.106 0-41.282 9.08-55.354 24.914l22.424 19.926c8.384-9.433 20.386-14.842 32.93-14.842s24.546 5.41 32.93 14.842l22.424-19.926c-14.072-15.834-34.248-24.914-55.354-24.914z"/></svg>