<svg id="Capa_1" enable-background="new 0 0 512 512" height="512" viewBox="0 0 512 512" width="512" xmlns="http://www.w3.org/2000/svg"><path d="m367.188 342.872h-30.067v34.769h-34.769v30.067h34.769v34.769h30.067v-34.769h34.769v-30.067h-34.769z"/><path d="m367.188 274.293v-274.293h-266.419c-16.074 0-31.125 6.217-42.382 17.506-11.57 11.602-17.915 27.213-17.867 43.915v311.488c0 27.892 22.847 50.584 50.93 50.584h145.422c13.622 50.906 60.14 88.507 115.283 88.507 65.796 0 119.326-53.529 119.326-119.325-.001-60.706-45.567-110.967-104.293-118.382zm-89.705-244.226v134.039l-17.154-10.928-18.954 11.556v-134.667zm-17.503 158.539 47.57 30.303v-188.842h29.571v244.226c-33.296 4.204-62.356 22.186-81.285 48.032h-114.817v-292.258h70.289v188.213zm-180.302-149.87c5.574-5.59 13.065-8.669 21.091-8.669h10.182v292.258h-19.501c-7.432 0-14.491 1.603-20.863 4.457v-265.404c-.025-8.697 3.204-16.738 9.091-22.642zm11.772 354.69c-11.504 0-20.863-9.204-20.863-20.517s9.359-20.517 20.863-20.517h148.383c-4.529 12.59-7.004 26.152-7.004 40.283 0 .251.008.5.01.751zm260.705 88.507c-49.217 0-89.259-40.041-89.259-89.258s40.042-89.259 89.259-89.259 89.259 40.042 89.259 89.259c-.001 49.217-40.042 89.258-89.259 89.258z"/></svg>