<svg id="Capa_1" enable-background="new 0 0 512 512" height="512" viewBox="0 0 512 512" width="512" xmlns="http://www.w3.org/2000/svg"><path d="m0 37.225v437.551h512v-437.551zm482 30v80.007h-36.145v-80.007zm-66.145 0v223.055l-28.862-19.339-28.862 19.339v-223.055zm-87.724 0v80.007h-298.131v-80.007zm-298.131 377.55v-267.544h298.131v169.261l58.862-39.44 58.862 39.44v-169.261h36.145v267.544z"/><path d="m68.348 123.41c7.846 0 15.363-6.899 15-15-.364-8.127-6.591-15-15-15-7.846 0-15.363 6.899-15 15 .364 8.127 6.59 15 15 15z"/><path d="m116.958 123.41c7.846 0 15.363-6.899 15-15-.364-8.127-6.591-15-15-15-7.846 0-15.363 6.899-15 15 .364 8.127 6.591 15 15 15z"/><path d="m165.568 123.41c7.846 0 15.363-6.899 15-15-.364-8.127-6.591-15-15-15-7.846 0-15.363 6.899-15 15 .364 8.127 6.591 15 15 15z"/><path d="m60.283 417.306h114.575v-210.011h-114.575zm30-180.011h54.575v150.011h-54.575z"/><path d="m209.999 207.295h84.001v30h-84.001z"/><path d="m209.999 267.298h84.001v30h-84.001z"/><path d="m209.999 327.302h84.001v30h-84.001z"/><path d="m209.999 387.306h226.001v30h-226.001z"/></svg>