<svg id="Capa_1" enable-background="new 0 0 512 512" height="512" viewBox="0 0 512 512" width="512" xmlns="http://www.w3.org/2000/svg"><path d="m93.309 199.787c22.405 0 38.908-15.403 38.908-36.408 0-21.004-16.503-36.407-38.908-36.407s-38.908 15.403-38.908 36.407c0 21.005 16.503 36.408 38.908 36.408zm0-56.412c10.602 0 18.904 7.901 18.904 20.004s-8.302 20.005-18.904 20.005c-10.603 0-18.904-7.902-18.904-20.005s8.302-20.004 18.904-20.004z"/><path d="m162.026 161.079 30.907 37.308h16.303v-70.015h-19.404v37.308l-30.906-37.308h-16.304v70.015h19.404z"/><path d="m284.257 128.372h19.804v70.015h-19.804z"/><path d="m337.569 161.079 30.906 37.308h16.304v-70.015h-19.404v37.308l-30.907-37.308h-16.303v70.015h19.404z"/><path d="m454.997 183.083h-36.608v-12.803h31.107v-14.802h-31.107v-11.803h35.307v-15.303h-54.911v70.015h56.212z"/><path d="m512 59.598h-512v207.729h77.652l-60.192 23.824 37.08 33.918-51.501 55.758 75.202 71.575 52.059-56.36 38.702 34.322 61.994-163.038h281.004zm-355.598 319.495-28.192-25.002-51.344 55.587-31.736-30.206 51.902-56.191-23.929-21.889 132.837-52.58zm325.598-141.767h-239.597l14.806-38.939h19.245v-15.703h-33.407v-54.312h-19.804v70.015h28.578l-98.377 38.939h-123.444v-147.728h452z"/></svg>