<svg id="Capa_1" enable-background="new 0 0 512 512" height="512" viewBox="0 0 512 512" width="512" xmlns="http://www.w3.org/2000/svg"><path d="m0 0v398.127h512v-398.127zm482 368.127h-452v-338.127h452z"/><path d="m100 424.62h-30v29.69h-70v30h70v27.69h30v-27.69h412v-30h-412z"/><path d="m241 325.836h30c0-9.991 8.129-18.12 18.121-18.12h165.649v-230.586h-160.655c-14.52 0-27.97 5.792-37.872 16.311-.083.088-.16.182-.242.271-.082-.089-.159-.182-.242-.271-9.902-10.519-23.352-16.311-37.872-16.311h-160.656v230.586h165.649c9.991 0 18.12 8.129 18.12 18.12zm53.115-218.706h130.655v170.586h-135.649c-6.407 0-12.525 1.259-18.121 3.541v-147.582c0-15.381 9.721-26.545 23.115-26.545zm-206.884 0h130.655c13.393 0 23.114 11.164 23.114 26.545v147.582c-5.596-2.282-11.714-3.541-18.121-3.541h-135.648z"/><path d="m112.499 146.887h100.742v30h-100.742z"/><path d="m112.499 207.878h100.742v30h-100.742z"/><path d="m297.514 146.887h100.742v30h-100.742z"/><path d="m297.514 207.878h100.742v30h-100.742z"/></svg>