<svg id="Capa_1" enable-background="new 0 0 512 512" height="512" viewBox="0 0 512 512" width="512" xmlns="http://www.w3.org/2000/svg"><path d="m367.188 274.292v-274.292h-266.419c-16.074 0-31.125 6.217-42.382 17.506-11.57 11.603-17.915 27.214-17.867 43.914v311.489c0 27.893 22.847 50.584 50.931 50.584h145.422c13.621 50.906 60.14 88.507 115.282 88.507 65.796 0 119.326-53.53 119.326-119.326 0-60.705-45.567-110.966-104.293-118.382zm-89.705-244.225v134.038l-17.155-10.928-18.954 11.556v-134.666zm-17.503 158.537 47.57 30.303v-188.84h29.571v244.225c-33.296 4.204-62.356 22.186-81.285 48.032h-114.817v-292.257h70.289v188.212zm-180.302-149.868c5.574-5.59 13.065-8.669 21.092-8.669h10.182v292.258h-19.502c-7.432 0-14.491 1.603-20.863 4.458v-265.406c-.025-8.696 3.204-16.736 9.091-22.641zm11.772 354.69c-11.504 0-20.863-9.204-20.863-20.517s9.359-20.517 20.863-20.517h148.383c-4.529 12.59-7.004 26.152-7.004 40.282 0 .251.008.501.01.752zm260.705 88.507c-49.217 0-89.259-40.042-89.259-89.259s40.042-89.259 89.259-89.259 89.259 40.042 89.259 89.259-40.042 89.259-89.259 89.259z"/><path d="m335.97 394.378-16.96-16.961-21.261 21.261 38.221 38.221 70.59-70.59-21.261-21.261z"/></svg>