<svg id="Capa_1" enable-background="new 0 0 512 512" height="512" viewBox="0 0 512 512" width="512" xmlns="http://www.w3.org/2000/svg"><path d="m512 0h-201.74c-15.501 0-30.066 6.045-41.012 17.022s-16.949 25.558-16.904 41.109l.444 72.447h-66.508v-130.578h-186.28v289.917h97.873v156.911h147.884v1.042c0 18.893-15.37 34.263-34.263 34.263h-20.875v29.867h221.311v-29.868h-17.922c-18.893 0-34.263-15.37-34.263-34.263v-1.042h152.255zm-84.424 29.868v81.31l-11.068-5.759-12.538 6.244v-81.795zm-11.366 109.065 41.233 21.455v-130.52h24.689v199.959h-145.403v-199.959h37.372v130.035zm65.922 120.761v26.248h-185.51c-7.236 0-13.123-5.888-13.123-13.125 0-7.236 5.887-13.123 13.123-13.123zm-191.733-221.583c4.492-4.505 10.245-7.287 16.463-8.033v199.748h-10.24c-4.656 0-9.141.744-13.343 2.119l-1.068-173.949c-.021-7.506 2.886-14.569 8.188-19.885zm-133.986-8.243v173.916h-126.545v-173.916zm-126.545 203.783h126.545v26.397h-126.545zm309.97 248.481h-74.175c6.297-9.92 9.961-21.668 9.961-34.263v-1.042h54.253v1.042c0 12.595 3.664 24.343 9.961 34.263zm-212.098-65.173v-40.876h352.452v40.876zm352.452-70.743h-352.452v-56.299h58.54v-129.471h66.691s.659 110.72.659 112.373c0 23.706 19.286 42.991 42.991 42.991h183.57v30.406z"/><path d="m79.536 90.171v63.625l46.662-29.689z"/></svg>