<svg id="Capa_1" enable-background="new 0 0 512 512" height="512" viewBox="0 0 512 512" width="512" xmlns="http://www.w3.org/2000/svg"><path d="m0 25.701v460.598h512v-460.598zm482 30v80.007h-452v-80.007zm-303.714 400.598v-6.826c0-42.852 34.862-77.714 77.714-77.714s77.714 34.862 77.714 77.714v6.826zm41.116-151.138c0-20.18 16.418-36.598 36.598-36.598s36.598 16.418 36.598 36.598-16.418 36.598-36.598 36.598-36.598-16.418-36.598-36.598zm.435-55.88c2.719-17.513 17.899-30.962 36.163-30.962s33.444 13.448 36.163 30.962c-10.422-6.768-22.836-10.718-36.163-10.718s-25.74 3.95-36.163 10.718zm143.877 207.018v-6.826c0-42.627-24.891-79.548-60.9-96.998 8.8-8.708 15.178-19.848 18.06-32.313h16.832v-30h-15.107v-35.244c0-36.722-29.876-66.598-66.598-66.598s-66.598 29.876-66.598 66.598v35.244h-15.107v30h16.832c2.882 12.466 9.259 23.605 18.06 32.313-36.01 17.45-60.9 54.371-60.9 96.998v6.826h-118.288v-290.591h452v290.591z"/><path d="m68.348 111.886c7.846 0 15.363-6.899 15-15-.364-8.127-6.591-15-15-15-7.846 0-15.363 6.899-15 15 .364 8.127 6.59 15 15 15z"/><path d="m116.958 111.886c7.846 0 15.363-6.899 15-15-.364-8.127-6.591-15-15-15-7.846 0-15.363 6.899-15 15 .364 8.127 6.591 15 15 15z"/><path d="m165.568 111.886c7.846 0 15.363-6.899 15-15-.364-8.127-6.591-15-15-15-7.846 0-15.363 6.899-15 15 .364 8.127 6.591 15 15 15z"/></svg>