<svg id="Capa_1" enable-background="new 0 0 512 512" height="512" viewBox="0 0 512 512" width="512" xmlns="http://www.w3.org/2000/svg"><path d="m114.01 0c-14.183 0-27.466 5.488-37.403 15.453-10.2 10.229-15.795 23.985-15.753 38.692v412.857c0 24.812 20.318 44.999 45.292 44.999h345v-512.001zm-23.159 54.101c-.019-6.72 2.466-12.924 6.997-17.468 4.267-4.279 10.007-6.636 16.162-6.636h6.281v392.004h-14.145c-5.366 0-10.515.932-15.295 2.641zm330.298 427.902h-315.003c-8.434 0-15.295-6.73-15.295-15.002 0-8.273 6.861-15.002 15.295-15.002h315.003zm0-60.002h-270.861v-392.004h270.861z"/><path d="m286.273 328.876c51.793 0 93.929-42.137 93.929-93.93s-42.137-93.93-93.929-93.93c-51.793 0-93.93 42.137-93.93 93.93s42.137 93.93 93.93 93.93zm0-157.862c35.252 0 63.932 28.68 63.932 63.933s-28.68 63.933-63.932 63.933c-35.253 0-63.932-28.68-63.932-63.933s28.68-63.933 63.932-63.933z"/><path d="m269.661 201.318v63.898l46.865-29.821z"/></svg>