<svg id="Capa_1" enable-background="new 0 0 512 512" height="512" viewBox="0 0 512 512" width="512" xmlns="http://www.w3.org/2000/svg"><path d="m402.083 329.796c22.389-17.267 36.841-44.347 36.841-74.743 0-37.968-22.546-70.765-54.95-85.719v-169.334h-383.39v343.37h257.19c-48.606 29.33-81.18 82.652-81.18 143.443v25.187h334.821v-25.188c.001-71.9-45.564-133.353-109.332-157.016zm6.838-74.743c0 35.482-28.867 64.349-64.349 64.349s-64.349-28.866-64.349-64.349c0-35.481 28.867-64.348 64.349-64.348s64.349 28.867 64.349 64.348zm-378.334 58.314v-283.365h323.384v131.168c-3.092-.307-6.227-.467-9.398-.467-42.319 0-78.219 28.007-90.142 66.458-6.114-4.625-12.682-8.603-19.588-11.876 9.467-9.144 16.309-20.977 19.288-34.26h17.906v-30.002h-16.231v-37.121c0-37.786-30.741-68.527-68.528-68.527-37.786 0-68.527 30.741-68.527 68.527v37.121h-16.231v30.002h17.906c2.977 13.273 9.81 25.097 19.264 34.237-36.892 17.546-62.654 54.822-63.561 98.105zm118.166-147.344c0-21.243 17.282-38.525 38.525-38.525s38.525 17.281 38.525 38.525c0 21.243-17.282 38.525-38.525 38.525s-38.525-17.282-38.525-38.525zm.3-56.848c2.339-19.02 18.583-33.799 38.224-33.799 19.642 0 35.886 14.779 38.225 33.799-10.927-7.371-24.082-11.679-38.225-11.679-14.142 0-27.297 4.308-38.224 11.679zm38.225 125.376c24.682 0 48.13 11.373 63.484 30.595 1.932 18.08 8.988 34.65 19.688 48.222h-164.316c1.254-43.675 37.172-78.817 81.144-78.817zm19.402 247.447c2.542-73.549 63.167-132.593 137.325-132.593 74.157 0 134.783 59.044 137.325 132.593z"/></svg>