<svg id="Capa_1" enable-background="new 0 0 512 512" height="512" viewBox="0 0 512 512" width="512" xmlns="http://www.w3.org/2000/svg"><path d="m512 226.904h-288.198v-40.291h102.197v-172.517h-234.395v172.517h102.198v40.291h-193.802v30h32.001v241h30v-241h302.71v241h146.876zm-390.396-182.808h174.395v112.517h-174.395zm273.108 293.14h86.876v50.333h-86.876zm0 130.665v-50.332h86.876v50.332zm86.876-160.665h-86.876v-50.332h86.876z"/><path d="m248.654 286.908h-79.704c-25.599 0-46.425 20.826-46.425 46.425v43.072h71.277v91.023h-33.888v30h99.413v-30h-35.525v-91.023h71.277v-43.072c0-25.599-20.826-46.425-46.425-46.425zm16.425 59.497h-112.554v-13.072c0-9.057 7.368-16.425 16.425-16.425h79.704c9.057 0 16.425 7.368 16.425 16.425z"/><path d="m192.099 129.687 45.393-28.35-45.393-32.395z"/></svg>