<svg id="Capa_1" enable-background="new 0 0 512 512" height="512" viewBox="0 0 512 512" width="512" xmlns="http://www.w3.org/2000/svg"><path d="m512 296.597-74.814 31.056v-37.324h-111.079c-16.647-47.939-54.035-85.029-100.279-102.18 22.443-17.294 36.931-44.429 36.931-74.889 0-52.111-42.395-94.506-94.505-94.506-52.111 0-94.506 42.395-94.506 94.506 0 30.278 14.315 57.272 36.529 74.58-64.275 23.491-110.277 85.253-110.277 157.558v25.229h186.111v122.62h251.075v-37.324l74.814 31.055zm-343.746-247.792c35.54 0 64.453 28.914 64.453 64.454s-28.914 64.454-64.453 64.454c-35.541 0-64.454-28.914-64.454-64.454s28.913-64.454 64.454-64.454zm-138.119 291.77c2.546-73.669 63.271-132.81 137.551-132.81 55.223 0 104.592 33.104 126.184 82.563h-107.759v50.247zm376.999 122.62h-190.971v-142.815h190.971zm74.814-21.23-44.762-18.581v-63.194l44.762-18.58z"/><path d="m293.431 357.245v65.789l48.245-30.706z"/></svg>