<svg id="Capa_1" enable-background="new 0 0 512 512" height="512" viewBox="0 0 512 512" width="512" xmlns="http://www.w3.org/2000/svg"><path d="m512 429.657v-429.346h-512v429.347h187.712v5.108c0 25.874-21.05 46.924-46.924 46.924h-26.274v30h282.278v-30h-26.274c-25.874 0-46.924-21.05-46.924-46.924v-5.108h188.406zm-150.008-399.346v104.101l-28.862-19.338-28.862 19.338v-104.101zm-28.862 120.873 58.862 39.439v-100.309h30.004v151.021h-330.706v-151.021h182.978v100.309zm-58.862-120.873v30.004h-212.978v211.021h390.706v-211.022h-60.004v-30.003h90.008v271.029h-452v-271.029zm-244.268 301.029h452v68.317h-452zm279.625 150.349h-107.945c10.039-12.997 16.032-29.269 16.032-46.924v-5.108h75.882v5.108c0 17.655 5.993 33.928 16.031 46.924z"/><path d="m256 350.357c-7.846 0-15.363 6.899-15 15 .364 8.127 6.591 15 15 15 7.846 0 15.363-6.899 15-15-.364-8.127-6.591-15-15-15z"/><path d="m120 120.318h119v30h-119z"/><path d="m120 180.322h119v30h-119z"/></svg>