<svg id="Capa_1" enable-background="new 0 0 512 512" height="512" viewBox="0 0 512 512" width="512" xmlns="http://www.w3.org/2000/svg"><path d="m376.74 346.828-24.586 24.586-24.586-24.586-21.26 21.26 24.586 24.586-24.586 24.585 21.26 21.261 24.586-24.586 24.586 24.586 21.26-21.261-24.586-24.585 24.586-24.586z"/><path d="m367.188 274.293v-274.293h-266.419c-16.074 0-31.125 6.217-42.382 17.506-11.57 11.603-17.915 27.214-17.867 43.915v311.488c0 27.892 22.847 50.584 50.93 50.584h145.422c13.622 50.906 60.14 88.507 115.283 88.507 65.796 0 119.325-53.53 119.325-119.326 0-60.705-45.566-110.966-104.292-118.381zm-89.705-244.226v134.039l-17.155-10.927-18.954 11.556v-134.668zm-17.503 158.538 47.57 30.303v-188.841h29.571v244.226c-33.296 4.204-62.355 22.186-81.284 48.031h-114.818v-292.257h70.289v188.213zm-180.302-149.869c5.575-5.59 13.064-8.669 21.091-8.669h10.183v292.257h-19.502c-7.432 0-14.491 1.603-20.863 4.457v-265.403c-.025-8.697 3.204-16.737 9.091-22.642zm11.772 354.69c-11.504 0-20.863-9.204-20.863-20.517s9.359-20.518 20.863-20.518h148.383c-4.529 12.59-7.005 26.152-7.005 40.283 0 .251.008.501.01.752zm260.705 88.507c-49.217 0-89.259-40.041-89.259-89.259s40.041-89.259 89.259-89.259c49.217 0 89.259 40.041 89.259 89.259s-40.042 89.259-89.259 89.259z"/></svg>