<svg id="Capa_1" enable-background="new 0 0 512 512" height="512" viewBox="0 0 512 512" width="512" xmlns="http://www.w3.org/2000/svg"><path d="m66.586 0v512h378.828v-512zm348.828 30v341.518h-318.828v-341.518zm-318.828 452v-80.482h318.828v80.482z"/><path d="m256 425c-7.846 0-15.363 6.899-15 15 .364 8.127 6.591 15 15 15 7.846 0 15.363-6.899 15-15-.364-8.127-6.591-15-15-15z"/><path d="m181.575 331.478h195.023v-261.031h-187.159c-14.185 0-27.469 5.488-37.405 15.454-10.202 10.23-15.797 23.988-15.755 38.696v161.877c0 24.815 20.32 45.004 45.296 45.004zm165.024-90.007h-120.877v-141.024h120.877zm-180.32-116.917c-.02-6.721 2.466-12.925 6.998-17.47 4.268-4.279 10.007-6.636 16.162-6.636h6.282v141.023h-14.146c-5.366 0-10.516.931-15.296 2.641zm15.296 146.917h165.023v30.007h-165.023c-8.435 0-15.296-6.73-15.296-15.003s6.862-15.004 15.296-15.004z"/></svg>