<svg id="Capa_1" enable-background="new 0 0 512 512" height="512" viewBox="0 0 512 512" width="512" xmlns="http://www.w3.org/2000/svg"><path d="m457.619 107.404 38.508-14.831-237.245-92.573-243.009 92.391 121.405 46.756v136.758c-18.773 25.357-29.057 56.407-29.057 88.079-.001 81.616 66.399 148.016 148.015 148.016s148.016-66.4 148.016-148.016c0-31.678-10.281-62.722-29.057-88.081v-136.755l52.417-20.187v182.101c-2.765 3.358-4.429 7.655-4.429 12.335 0 2.109 0 6.036 6.054 17.961l13.38 26.358 13.378-26.358c6.053-11.926 6.053-15.852 6.053-17.961 0-4.679-1.663-8.977-4.428-12.334v-193.659zm-83.375 256.58c0 8.366-.881 16.529-2.545 24.407h-56.268c1.401-14.666 1.556-29.605.423-44.46h56.718c1.11 6.553 1.672 13.251 1.672 20.053zm-147.009 24.407c-1.578-14.863-1.719-29.828-.456-44.46h58.92c1.262 14.632 1.122 29.597-.456 44.46zm52.737 30.008c-5.175 20.623-13.256 39.19-23.734 54.49-10.478-15.3-18.559-33.867-23.734-54.49zm-141.744-54.415c0-6.802.563-13.5 1.672-20.053h56.722c-1.133 14.855-.978 29.794.423 44.46h-56.273c-1.663-7.878-2.544-16.041-2.544-24.407zm66.927-68.398c-1.716 6.036-3.191 12.157-4.426 18.338h-51.409c2.999-6.375 6.592-12.504 10.762-18.338zm70.752 0c1.974 5.956 3.679 12.08 5.109 18.338h-49.555c1.43-6.258 3.135-12.382 5.109-18.338zm35.841 18.338c-1.234-6.181-2.71-12.302-4.426-18.338h45.067c4.171 5.834 7.765 11.963 10.764 18.338zm33.44-48.346h-177.903v-25.265h177.903zm-193.642 152.821h50.195c4.675 21.29 12.096 41.387 22.084 59.068-31.377-8.975-57.445-30.644-72.279-59.068zm137.106 59.066c9.988-17.68 17.408-37.777 22.083-59.066h50.191c-14.833 28.422-40.899 50.09-72.274 59.066zm56.536-267.158h-177.903v-59.602l88.951 34.258 88.951-34.258v59.602zm-88.952-57.501-156.4-60.234 158.906-60.416 154.367 60.234z"/></svg>