<svg id="Capa_1" enable-background="new 0 0 512 512" height="512" viewBox="0 0 512 512" width="512" xmlns="http://www.w3.org/2000/svg"><path d="m512 429.657v-429.346h-512v429.347h187.712v5.108c0 25.874-21.05 46.924-46.924 46.924h-26.275v30h282.279v-30h-26.275c-25.874 0-46.924-21.05-46.924-46.924v-5.108h188.407zm-90.004-399.346v96.281l-14.192-10.639-14.192 10.64v-96.282zm-58.384 0v156.264l44.192-33.128 44.192 33.129v-156.265h30.004v271.029h-452v-271.029zm-333.612 301.029h452v68.317h-452zm279.625 150.349h-107.944c10.039-12.997 16.032-29.269 16.032-46.924v-5.108h75.881v5.108c-.001 17.655 5.992 33.928 16.031 46.924z"/><path d="m256 350.357c-7.846 0-15.363 6.899-15 15 .364 8.127 6.591 15 15 15 7.846 0 15.363-6.899 15-15-.364-8.127-6.591-15-15-15z"/><path d="m256 251.915c47.958 0 86.975-39.017 86.975-86.975s-39.017-86.975-86.975-86.975-86.975 39.017-86.975 86.975 39.017 86.975 86.975 86.975zm0-143.95c31.416 0 56.975 25.559 56.975 56.975s-25.559 56.975-56.975 56.975-56.975-25.559-56.975-56.975 25.559-56.975 56.975-56.975z"/><path d="m243.12 131.303v63.91l46.867-29.823z"/></svg>