<svg id="Capa_1" enable-background="new 0 0 512 512" height="512" viewBox="0 0 512 512" width="512" xmlns="http://www.w3.org/2000/svg"><path d="m0 37.225v437.551h512v-437.551zm482 30v80.007h-452v-80.007zm-452 377.55v-267.544h131.625c-41.954 29.685-69.397 78.583-69.397 133.772s27.443 104.087 69.397 133.772zm226-267.544c73.762 0 133.771 60.01 133.771 133.772s-60.009 133.772-133.771 133.772-133.772-60.01-133.772-133.772 60.01-133.772 133.772-133.772zm94.374 267.544c41.954-29.685 69.397-78.583 69.397-133.772s-27.443-104.087-69.397-133.772h131.626v267.544z"/><path d="m68.348 123.41c7.846 0 15.363-6.899 15-15-.364-8.127-6.591-15-15-15-7.846 0-15.363 6.899-15 15 .364 8.127 6.59 15 15 15z"/><path d="m116.958 123.41c7.846 0 15.363-6.899 15-15-.364-8.127-6.591-15-15-15-7.846 0-15.363 6.899-15 15 .364 8.127 6.591 15 15 15z"/><path d="m165.568 123.41c7.846 0 15.363-6.899 15-15-.364-8.127-6.591-15-15-15-7.846 0-15.363 6.899-15 15 .364 8.127 6.591 15 15 15z"/><path d="m256.625 406.185c17.438 0 36.537-3.736 48.993-9.965l-7.682-22.213c-13.493 6.436-27.817 9.135-41.312 9.135-44.218 0-73.488-30.31-73.488-72.659 0-41.519 29.894-72.243 74.319-72.243s74.111 27.818 74.111 67.677c0 23.666-5.397 32.177-13.079 32.177-4.981 0-9.134-3.113-9.134-12.455v-63.319h-33.838v10.173c-6.851-7.682-16.4-11.833-28.856-11.833-24.911 0-46.086 20.344-46.086 51.898s21.59 52.106 46.086 52.106c16.193 0 27.195-6.643 33.631-18.061 4.982 11.833 15.777 18.061 30.517 18.061 26.157 0 45.671-20.967 45.671-59.372 0-50.861-40.065-90.097-99.022-90.097-61.864 0-101.93 41.312-101.93 95.286 0 54.6 39.859 95.704 101.099 95.704zm-1.038-69.752c-11.833 0-20.344-8.512-20.344-23.874 0-15.154 8.511-23.666 20.344-23.666s20.553 8.304 20.553 23.666c0 15.57-8.72 23.874-20.553 23.874z"/></svg>