<svg id="Capa_1" enable-background="new 0 0 512 512" height="512" viewBox="0 0 512 512" width="512" xmlns="http://www.w3.org/2000/svg"><path d="m512 .129h-205.451c-17.7 0-34.094 7.059-46.161 19.875-1.292 1.373-2.509 2.81-3.675 4.289-1.166-1.478-2.383-2.916-3.675-4.289-12.067-12.816-28.461-19.875-46.161-19.875h-205.451v292.274h211.98c15.608 0 28.307 12.698 28.307 28.307h30c0-15.608 12.698-28.307 28.307-28.307h152.26v18.45c0 6.629-5.393 12.022-12.021 12.022h-19.578c-21.972 0-39.848 17.875-39.848 39.848v1.833c0 21.972 17.876 39.848 39.848 39.848h21.752c5.43 0 9.848 4.418 9.848 9.848s-4.418 9.848-9.848 9.848h-243.15c-6.934-32.954-36.224-57.773-71.21-57.773h-55.3c-40.127-.002-72.773 32.644-72.773 72.771s32.646 72.773 72.773 72.773h55.299c34.986 0 64.276-24.819 71.21-57.773h243.15c21.972 0 39.848-17.875 39.848-39.848s-17.876-39.848-39.848-39.848h-21.752c-5.43 0-9.848-4.417-9.848-9.848v-1.833c0-5.43 4.418-9.848 9.848-9.848h19.578c23.171 0 42.021-18.851 42.021-42.022v-18.45h29.721zm-343.877 423.969h-45.756v-27.773h5.705c18.309 0 33.962 11.566 40.051 27.773zm-138.123 15c0-23.585 19.188-42.773 42.773-42.773h19.594v85.546h-19.594c-23.585 0-42.773-19.188-42.773-42.773zm98.072 42.773h-5.705v-27.773h45.756c-6.09 16.207-21.742 27.773-40.051 27.773zm113.641-212.125c-8.387-4.676-18.042-7.343-28.307-7.343h-181.98v-232.274h175.451c20.186 0 34.836 16.537 34.836 39.321zm30 0v-200.296c0-22.784 14.65-39.321 34.836-39.321h175.451v232.274h-181.98c-10.265 0-19.92 2.667-28.307 7.343z"/><path d="m70.707 66.55h131.726v30h-131.726z"/><path d="m70.707 132.504h131.726v30h-131.726z"/><path d="m70.707 195.922h131.726v30h-131.726z"/><path d="m310.994 67.687h131.725v30h-131.725z"/><path d="m310.994 132.504h131.725v30h-131.725z"/><path d="m310.994 195.922h131.725v30h-131.725z"/></svg>